<svg width="27" height="20" viewBox="0 0 27 20" fill="none" xmlns="http://www.w3.org/2000/svg">
<path d="M6.82003 11.4096C6.77623 12.2255 7.05632 13.0257 7.59939 13.6362C8.14246 14.2467 8.90458 14.6181 9.72003 14.6696C10.5337 14.6156 11.2933 14.2431 11.8342 13.6329C12.3752 13.0227 12.6539 12.2239 12.61 11.4096C12.654 10.5943 12.3756 9.79445 11.8349 9.18265C11.2942 8.57085 10.5346 8.19622 9.72003 8.13965C8.90372 8.19371 8.14158 8.56725 7.59876 9.17933C7.05594 9.79141 6.77615 10.5927 6.82003 11.4096ZM10.61 11.4096C10.61 12.0896 10.2 12.6696 9.72003 12.6696C9.24003 12.6696 8.82003 12.0896 8.82003 11.4096C8.82003 10.7296 9.23003 10.1396 9.72003 10.1396C10.21 10.1396 10.61 10.7196 10.61 11.4096ZM16.28 8.13965C15.4655 8.19622 14.7059 8.57085 14.1652 9.18265C13.6245 9.79445 13.3461 10.5943 13.39 11.4096C13.3461 12.2239 13.6249 13.0227 14.1658 13.6329C14.7068 14.2431 15.4664 14.6156 16.28 14.6696C17.0955 14.6181 17.8576 14.2467 18.4007 13.6362C18.9437 13.0257 19.2238 12.2255 19.18 11.4096C19.2239 10.5927 18.9441 9.79141 18.4013 9.17933C17.8585 8.56725 17.0963 8.19371 16.28 8.13965ZM16.28 12.6696C15.8 12.6696 15.39 12.0896 15.39 11.4096C15.39 10.7296 15.8 10.1396 16.28 10.1396C16.76 10.1396 17.18 10.7196 17.18 11.4096C17.18 12.0996 16.77 12.6696 16.28 12.6696Z" fill="white"/>
<path d="M23.63 4.52969L23.56 4.43969C23.56 4.43969 23.56 4.36969 23.56 4.33969C21.8242 2.23147 19.4287 0.769512 16.76 0.189693C16.6307 0.152333 16.4952 0.141456 16.3616 0.157713C16.228 0.173971 16.0991 0.217028 15.9825 0.284305C15.866 0.351582 15.7642 0.441694 15.6833 0.549244C15.6024 0.656794 15.544 0.779568 15.5117 0.910211C15.4794 1.04085 15.4738 1.17668 15.4952 1.30954C15.5166 1.44241 15.5646 1.56959 15.6364 1.68345C15.7081 1.79732 15.8021 1.89553 15.9127 1.97221C16.0233 2.04889 16.1482 2.10245 16.28 2.12969C18.4868 2.60282 20.4741 3.79518 21.93 5.51969C23.2788 8.61526 23.9831 11.9531 24 15.3297C22.6073 16.6287 20.8727 17.5029 19 17.8497V17.4197C19 17.4197 19 17.3697 19 17.3397C20.2328 16.8614 21.3885 16.2044 22.43 15.3897C22.6382 15.2239 22.772 14.9823 22.802 14.7178C22.8321 14.4534 22.7558 14.1879 22.59 13.9797C22.4243 13.7715 22.1826 13.6377 21.9182 13.6077C21.6537 13.5777 21.3882 13.6539 21.18 13.8197C18.8327 15.5998 15.9443 16.5178 13 16.4197C10.0795 16.5017 7.21847 15.5845 4.89003 13.8197C4.78694 13.7376 4.6687 13.6766 4.54205 13.6403C4.4154 13.6039 4.28282 13.5928 4.15189 13.6077C3.88746 13.6377 3.64579 13.7715 3.48003 13.9797C3.31427 14.1879 3.238 14.4534 3.26801 14.7178C3.29801 14.9823 3.43183 15.2239 3.64003 15.3897C4.67441 16.2042 5.82349 16.8613 7.05003 17.3397V17.8497C5.1774 17.5029 3.44273 16.6287 2.05003 15.3297C2.07322 11.9517 2.78435 8.61382 4.14003 5.51969C5.59598 3.79518 7.58325 2.60282 9.79003 2.12969C10.0384 2.05793 10.2493 1.89278 10.3785 1.66889C10.5077 1.445 10.5452 1.17976 10.4832 0.928815C10.4211 0.677871 10.2642 0.460722 10.0455 0.322919C9.82677 0.185117 9.56319 0.137369 9.31003 0.189693C6.64139 0.769512 4.24589 2.23147 2.51003 4.33969C2.51003 4.33969 2.51003 4.40969 2.51003 4.43969L2.44003 4.52969C0.500028 8.52969 0.280028 12.1797 0.0700276 15.6697C0.0609834 15.8113 0.0821646 15.9531 0.132164 16.0859C0.182164 16.2187 0.259838 16.3393 0.360028 16.4397C2.39245 18.5111 5.10668 19.7759 8.00003 19.9997C8.26237 19.9986 8.51377 19.8944 8.70003 19.7097C8.79452 19.6171 8.86969 19.5066 8.92118 19.3848C8.97268 19.2629 8.99948 19.132 9.00003 18.9997V17.9997C11.6312 18.6152 14.3689 18.6152 17 17.9997V18.9997C17.0006 19.132 17.0274 19.2629 17.0789 19.3848C17.1304 19.5066 17.2055 19.6171 17.3 19.7097C17.4863 19.8944 17.7377 19.9986 18 19.9997C20.9218 19.8131 23.6746 18.5647 25.74 16.4897C25.8402 16.3893 25.9179 16.2687 25.9679 16.1359C26.0179 16.0031 26.0391 15.8613 26.03 15.7197C25.79 12.1797 25.57 8.56969 23.63 4.52969Z" fill="white"/>
<path d="M20.49 5.71953C20.5507 5.6027 20.5877 5.47505 20.5989 5.34389C20.6101 5.21274 20.5953 5.08066 20.5553 4.95524C20.5154 4.82981 20.4511 4.71351 20.3661 4.613C20.2811 4.51249 20.1771 4.42975 20.06 4.36953C17.8579 3.31986 15.4387 2.80587 13 2.86953C10.5613 2.80587 8.14216 3.31986 5.94001 4.36953C5.82297 4.42975 5.71896 4.51249 5.63396 4.613C5.54896 4.71351 5.48464 4.82981 5.44469 4.95524C5.40474 5.08066 5.38994 5.21274 5.40115 5.34389C5.41237 5.47505 5.44936 5.6027 5.51001 5.71953C5.63339 5.95419 5.84491 6.13025 6.09806 6.20901C6.35122 6.28777 6.62528 6.26278 6.86001 6.13953C8.77924 5.24198 10.8822 4.807 13 4.86953C15.1178 4.807 17.2208 5.24198 19.14 6.13953C19.2815 6.21592 19.4393 6.25708 19.6 6.25953C19.7836 6.25991 19.9638 6.20972 20.1208 6.11447C20.2778 6.01921 20.4055 5.88257 20.49 5.71953Z" fill="white"/>
</svg>
